<mxfile host="app.diagrams.net" modified="2024-01-09T06:30:02.727Z" agent="Mozilla/5.0 (Macintosh; Intel Mac OS X 10_15_7) AppleWebKit/537.36 (KHTML, like Gecko) Chrome/120.0.0.0 Safari/537.36" etag="g4fktX-okx7jMCC_rqpp" version="21.6.2" type="github">
  <diagram name="Page-1" id="5f0bae14-7c28-e335-631c-24af17079c00">
    <mxGraphModel dx="2074" dy="1155" grid="1" gridSize="10" guides="1" tooltips="1" connect="1" arrows="1" fold="1" page="1" pageScale="1" pageWidth="1100" pageHeight="850" background="none" math="0" shadow="0">
      <root>
        <mxCell id="0" />
        <mxCell id="1" parent="0" />
        <mxCell id="39150e848f15840c-1" value="apps" style="verticalAlign=top;align=left;spacingTop=8;spacingLeft=2;spacingRight=12;shape=cube;size=10;direction=south;fontStyle=5;html=1;rounded=0;shadow=0;comic=0;labelBackgroundColor=none;strokeWidth=1;fontFamily=Verdana;fontSize=12;strokeColor=#cae30d;" parent="1" vertex="1">
          <mxGeometry x="130" y="70" width="740" height="680" as="geometry" />
        </mxCell>
        <mxCell id="39150e848f15840c-4" value="contexts" style="html=1;rounded=0;shadow=0;comic=0;labelBackgroundColor=none;strokeWidth=1;fontFamily=Verdana;fontSize=12;align=center;fontStyle=1" parent="1" vertex="1">
          <mxGeometry x="720" y="90" width="110" height="50" as="geometry" />
        </mxCell>
        <mxCell id="39150e848f15840c-5" value="features" style="shape=component;align=left;spacingLeft=36;rounded=0;shadow=0;comic=0;labelBackgroundColor=none;strokeWidth=1;fontFamily=Verdana;fontSize=12;html=1;fontStyle=1" parent="1" vertex="1">
          <mxGeometry x="139" y="135" width="250" height="155" as="geometry" />
        </mxCell>
        <mxCell id="39150e848f15840c-12" style="edgeStyle=none;rounded=0;html=1;dashed=1;labelBackgroundColor=none;startArrow=none;startFill=0;startSize=8;endArrow=open;endFill=0;endSize=16;fontFamily=Verdana;fontSize=12;exitX=0.25;exitY=0;exitDx=0;exitDy=0;" parent="1" source="XnKO9qKkf2iOZudYSjbh-1" edge="1">
          <mxGeometry relative="1" as="geometry">
            <mxPoint x="169.99591836734703" y="475.00000000000006" as="sourcePoint" />
            <mxPoint x="200" y="290" as="targetPoint" />
          </mxGeometry>
        </mxCell>
        <mxCell id="XnKO9qKkf2iOZudYSjbh-1" value="pui" style="shape=component;align=left;spacingLeft=36;rounded=0;shadow=0;comic=0;labelBackgroundColor=none;strokeWidth=1;fontFamily=Verdana;fontSize=12;html=1;fontStyle=1" vertex="1" parent="1">
          <mxGeometry x="137" y="475" width="250" height="155" as="geometry" />
        </mxCell>
        <mxCell id="XnKO9qKkf2iOZudYSjbh-2" value="apis" style="html=1;rounded=0;shadow=0;comic=0;labelBackgroundColor=none;strokeWidth=1;fontFamily=Verdana;fontSize=12;align=center;fontStyle=1" vertex="1" parent="1">
          <mxGeometry x="720" y="150" width="110" height="50" as="geometry" />
        </mxCell>
        <mxCell id="XnKO9qKkf2iOZudYSjbh-3" value="constants" style="html=1;rounded=0;shadow=0;comic=0;labelBackgroundColor=none;strokeWidth=1;fontFamily=Verdana;fontSize=12;align=center;fontStyle=1" vertex="1" parent="1">
          <mxGeometry x="720" y="210" width="110" height="50" as="geometry" />
        </mxCell>
        <mxCell id="XnKO9qKkf2iOZudYSjbh-4" value="hooks" style="html=1;rounded=0;shadow=0;comic=0;labelBackgroundColor=none;strokeWidth=1;fontFamily=Verdana;fontSize=12;align=center;fontStyle=1" vertex="1" parent="1">
          <mxGeometry x="720" y="270" width="110" height="50" as="geometry" />
        </mxCell>
        <mxCell id="XnKO9qKkf2iOZudYSjbh-5" value="models" style="html=1;rounded=0;shadow=0;comic=0;labelBackgroundColor=none;strokeWidth=1;fontFamily=Verdana;fontSize=12;align=center;fontStyle=1" vertex="1" parent="1">
          <mxGeometry x="720" y="330" width="110" height="50" as="geometry" />
        </mxCell>
        <mxCell id="XnKO9qKkf2iOZudYSjbh-6" value="modules" style="html=1;rounded=0;shadow=0;comic=0;labelBackgroundColor=none;strokeWidth=1;fontFamily=Verdana;fontSize=12;align=center;fontStyle=1" vertex="1" parent="1">
          <mxGeometry x="720" y="390" width="110" height="50" as="geometry" />
        </mxCell>
        <mxCell id="XnKO9qKkf2iOZudYSjbh-7" value="schemas" style="html=1;rounded=0;shadow=0;comic=0;labelBackgroundColor=none;strokeWidth=1;fontFamily=Verdana;fontSize=12;align=center;fontStyle=1" vertex="1" parent="1">
          <mxGeometry x="720" y="450" width="110" height="50" as="geometry" />
        </mxCell>
        <mxCell id="XnKO9qKkf2iOZudYSjbh-8" value="services" style="html=1;rounded=0;shadow=0;comic=0;labelBackgroundColor=none;strokeWidth=1;fontFamily=Verdana;fontSize=12;align=center;fontStyle=1" vertex="1" parent="1">
          <mxGeometry x="720" y="510" width="110" height="50" as="geometry" />
        </mxCell>
        <mxCell id="XnKO9qKkf2iOZudYSjbh-9" value="types" style="html=1;rounded=0;shadow=0;comic=0;labelBackgroundColor=none;strokeWidth=1;fontFamily=Verdana;fontSize=12;align=center;fontStyle=1" vertex="1" parent="1">
          <mxGeometry x="720" y="570" width="110" height="50" as="geometry" />
        </mxCell>
        <mxCell id="XnKO9qKkf2iOZudYSjbh-10" value="utils" style="html=1;rounded=0;shadow=0;comic=0;labelBackgroundColor=none;strokeWidth=1;fontFamily=Verdana;fontSize=12;align=center;fontStyle=1" vertex="1" parent="1">
          <mxGeometry x="720" y="630" width="110" height="50" as="geometry" />
        </mxCell>
        <mxCell id="XnKO9qKkf2iOZudYSjbh-11" style="edgeStyle=none;rounded=0;html=1;dashed=1;labelBackgroundColor=none;startArrow=none;startFill=0;startSize=8;endArrow=open;endFill=0;endSize=16;fontFamily=Verdana;fontSize=12;exitX=0.75;exitY=1;exitDx=0;exitDy=0;entryX=0.75;entryY=0;entryDx=0;entryDy=0;" edge="1" parent="1" source="39150e848f15840c-5" target="XnKO9qKkf2iOZudYSjbh-1">
          <mxGeometry relative="1" as="geometry">
            <mxPoint x="210" y="485" as="sourcePoint" />
            <mxPoint x="210" y="300" as="targetPoint" />
          </mxGeometry>
        </mxCell>
        <mxCell id="XnKO9qKkf2iOZudYSjbh-12" style="edgeStyle=none;rounded=0;html=1;dashed=1;labelBackgroundColor=none;startArrow=none;startFill=0;startSize=8;endArrow=open;endFill=0;endSize=16;fontFamily=Verdana;fontSize=12;exitX=1;exitY=0.25;exitDx=0;exitDy=0;entryX=0;entryY=0.25;entryDx=0;entryDy=0;" edge="1" parent="1" source="39150e848f15840c-5" target="39150e848f15840c-4">
          <mxGeometry relative="1" as="geometry">
            <mxPoint x="570" y="285" as="sourcePoint" />
            <mxPoint x="570" y="100" as="targetPoint" />
          </mxGeometry>
        </mxCell>
        <mxCell id="XnKO9qKkf2iOZudYSjbh-13" style="edgeStyle=none;rounded=0;html=1;dashed=1;labelBackgroundColor=none;startArrow=none;startFill=0;startSize=8;endArrow=open;endFill=0;endSize=16;fontFamily=Verdana;fontSize=12;" edge="1" parent="1" source="39150e848f15840c-4">
          <mxGeometry relative="1" as="geometry">
            <mxPoint x="399" y="184" as="sourcePoint" />
            <mxPoint x="390" y="200" as="targetPoint" />
          </mxGeometry>
        </mxCell>
        <mxCell id="XnKO9qKkf2iOZudYSjbh-14" value="pages" style="html=1;rounded=0;shadow=0;comic=0;labelBackgroundColor=none;strokeWidth=1;fontFamily=Verdana;fontSize=12;align=center;fontStyle=1" vertex="1" parent="1">
          <mxGeometry x="720" y="690" width="110" height="50" as="geometry" />
        </mxCell>
        <mxCell id="XnKO9qKkf2iOZudYSjbh-15" style="edgeStyle=none;rounded=0;html=1;dashed=1;labelBackgroundColor=none;startArrow=none;startFill=0;startSize=8;endArrow=open;endFill=0;endSize=16;fontFamily=Verdana;fontSize=12;exitX=1.004;exitY=0.613;exitDx=0;exitDy=0;entryX=0;entryY=0.25;entryDx=0;entryDy=0;exitPerimeter=0;" edge="1" parent="1" source="39150e848f15840c-5" target="XnKO9qKkf2iOZudYSjbh-4">
          <mxGeometry relative="1" as="geometry">
            <mxPoint x="399" y="231" as="sourcePoint" />
            <mxPoint x="730" y="160" as="targetPoint" />
          </mxGeometry>
        </mxCell>
        <mxCell id="XnKO9qKkf2iOZudYSjbh-16" style="edgeStyle=none;rounded=0;html=1;dashed=1;labelBackgroundColor=none;startArrow=none;startFill=0;startSize=8;endArrow=open;endFill=0;endSize=16;fontFamily=Verdana;fontSize=12;exitX=0;exitY=0.75;exitDx=0;exitDy=0;entryX=1;entryY=0.75;entryDx=0;entryDy=0;" edge="1" parent="1" source="XnKO9qKkf2iOZudYSjbh-4" target="39150e848f15840c-5">
          <mxGeometry relative="1" as="geometry">
            <mxPoint x="400" y="240" as="sourcePoint" />
            <mxPoint x="730" y="293" as="targetPoint" />
          </mxGeometry>
        </mxCell>
        <mxCell id="XnKO9qKkf2iOZudYSjbh-17" style="edgeStyle=none;rounded=0;html=1;dashed=1;labelBackgroundColor=none;startArrow=none;startFill=0;startSize=8;endArrow=open;endFill=0;endSize=16;fontFamily=Verdana;fontSize=12;entryX=0;entryY=0.5;entryDx=0;entryDy=0;exitX=1;exitY=0.855;exitDx=0;exitDy=0;exitPerimeter=0;" edge="1" parent="1" source="39150e848f15840c-5" target="XnKO9qKkf2iOZudYSjbh-14">
          <mxGeometry relative="1" as="geometry">
            <mxPoint x="390" y="280" as="sourcePoint" />
            <mxPoint x="720" y="381.5" as="targetPoint" />
            <Array as="points">
              <mxPoint x="630" y="715" />
            </Array>
          </mxGeometry>
        </mxCell>
        <mxCell id="XnKO9qKkf2iOZudYSjbh-18" style="edgeStyle=none;rounded=0;html=1;dashed=1;labelBackgroundColor=none;startArrow=none;startFill=0;startSize=8;endArrow=open;endFill=0;endSize=16;fontFamily=Verdana;fontSize=12;exitX=0;exitY=0.75;exitDx=0;exitDy=0;entryX=1;entryY=0.5;entryDx=0;entryDy=0;strokeWidth=1;strokeColor=#FF0000;" edge="1" parent="1" source="XnKO9qKkf2iOZudYSjbh-4" target="XnKO9qKkf2iOZudYSjbh-1">
          <mxGeometry relative="1" as="geometry">
            <mxPoint x="730" y="318" as="sourcePoint" />
            <mxPoint x="399" y="261" as="targetPoint" />
          </mxGeometry>
        </mxCell>
        <mxCell id="XnKO9qKkf2iOZudYSjbh-19" style="edgeStyle=none;rounded=0;html=1;dashed=1;labelBackgroundColor=none;startArrow=none;startFill=0;startSize=8;endArrow=open;endFill=0;endSize=16;fontFamily=Verdana;fontSize=12;exitX=0;exitY=0.5;exitDx=0;exitDy=0;strokeWidth=1;strokeColor=#FF0000;" edge="1" parent="1" source="XnKO9qKkf2iOZudYSjbh-3">
          <mxGeometry relative="1" as="geometry">
            <mxPoint x="730" y="318" as="sourcePoint" />
            <mxPoint x="390" y="553" as="targetPoint" />
          </mxGeometry>
        </mxCell>
        <mxCell id="XnKO9qKkf2iOZudYSjbh-20" style="edgeStyle=none;rounded=0;html=1;dashed=1;labelBackgroundColor=none;startArrow=none;startFill=0;startSize=8;endArrow=open;endFill=0;endSize=16;fontFamily=Verdana;fontSize=12;exitX=0;exitY=0.75;exitDx=0;exitDy=0;strokeWidth=1;strokeColor=#FF0000;" edge="1" parent="1" source="39150e848f15840c-4">
          <mxGeometry relative="1" as="geometry">
            <mxPoint x="730" y="245" as="sourcePoint" />
            <mxPoint x="400" y="550" as="targetPoint" />
          </mxGeometry>
        </mxCell>
        <mxCell id="XnKO9qKkf2iOZudYSjbh-21" style="edgeStyle=none;rounded=0;html=1;dashed=1;labelBackgroundColor=none;startArrow=none;startFill=0;startSize=8;endArrow=open;endFill=0;endSize=16;fontFamily=Verdana;fontSize=12;exitX=0;exitY=0.5;exitDx=0;exitDy=0;entryX=1;entryY=0.5;entryDx=0;entryDy=0;strokeWidth=1;strokeColor=#FF0000;" edge="1" parent="1" source="XnKO9qKkf2iOZudYSjbh-5" target="XnKO9qKkf2iOZudYSjbh-1">
          <mxGeometry relative="1" as="geometry">
            <mxPoint x="730" y="138" as="sourcePoint" />
            <mxPoint x="400" y="496" as="targetPoint" />
          </mxGeometry>
        </mxCell>
        <mxCell id="XnKO9qKkf2iOZudYSjbh-22" style="edgeStyle=none;rounded=0;html=1;dashed=1;labelBackgroundColor=none;startArrow=none;startFill=0;startSize=8;endArrow=open;endFill=0;endSize=16;fontFamily=Verdana;fontSize=12;exitX=0;exitY=0.5;exitDx=0;exitDy=0;entryX=1;entryY=0.5;entryDx=0;entryDy=0;strokeWidth=1;strokeColor=#FF0000;" edge="1" parent="1" source="XnKO9qKkf2iOZudYSjbh-6" target="XnKO9qKkf2iOZudYSjbh-1">
          <mxGeometry relative="1" as="geometry">
            <mxPoint x="730" y="365" as="sourcePoint" />
            <mxPoint x="397" y="594" as="targetPoint" />
          </mxGeometry>
        </mxCell>
        <mxCell id="XnKO9qKkf2iOZudYSjbh-23" style="edgeStyle=none;rounded=0;html=1;dashed=1;labelBackgroundColor=none;startArrow=none;startFill=0;startSize=8;endArrow=open;endFill=0;endSize=16;fontFamily=Verdana;fontSize=12;exitX=0;exitY=0.5;exitDx=0;exitDy=0;strokeWidth=1;strokeColor=#FF0000;" edge="1" parent="1" source="XnKO9qKkf2iOZudYSjbh-8">
          <mxGeometry relative="1" as="geometry">
            <mxPoint x="730" y="425" as="sourcePoint" />
            <mxPoint x="390" y="550" as="targetPoint" />
          </mxGeometry>
        </mxCell>
        <mxCell id="XnKO9qKkf2iOZudYSjbh-24" style="edgeStyle=none;rounded=0;html=1;dashed=1;labelBackgroundColor=none;startArrow=none;startFill=0;startSize=8;endArrow=open;endFill=0;endSize=16;fontFamily=Verdana;fontSize=12;exitX=0;exitY=0.5;exitDx=0;exitDy=0;strokeWidth=1;strokeColor=#FF0000;" edge="1" parent="1" source="XnKO9qKkf2iOZudYSjbh-10">
          <mxGeometry relative="1" as="geometry">
            <mxPoint x="730" y="545" as="sourcePoint" />
            <mxPoint x="390" y="550" as="targetPoint" />
          </mxGeometry>
        </mxCell>
      </root>
    </mxGraphModel>
  </diagram>
</mxfile>
